<svg width="200" height="60" viewBox="0 0 200 60" fill="none" xmlns="http://www.w3.org/2000/svg">
  <!-- Circle background for G -->
  <g>
    <!-- Red circular G shape -->
    <path d="M 15 30 A 25 25 0 0 1 50 8 L 50 20 A 13 13 0 0 0 15 30 Z" fill="#dc2626"/>
    <path d="M 50 8 A 25 25 0 0 1 50 52 L 38 52 A 13 13 0 0 0 50 20 Z" fill="#dc2626"/>
    <path d="M 50 52 A 25 25 0 0 1 15 30 L 27 30 A 13 13 0 0 0 50 52 Z" fill="#dc2626"/>
    <path d="M 27 30 A 13 13 0 0 0 50 20 L 50 32 A 1 1 0 0 1 38 32 L 38 20 L 50 20 Z" fill="#dc2626"/>

    <!-- Lightning bolt inside G (white) -->
    <path d="M 38 22 L 33 32 L 40 32 L 30 48 L 40 40 L 32 40 L 38 22 Z" fill="white"/>
  </g>

  <!-- Text -->
  <text x="70" y="28" fill="#dc2626" font-family="Georgia, serif" font-size="20" font-weight="700" dominant-baseline="middle">Gesmeco</text>
  <text x="70" y="45" fill="#1f2937" font-family="Georgia, serif" font-size="14" font-style="italic" font-weight="600" dominant-baseline="middle">Energía</text>
</svg>
