<svg width="220" height="60" viewBox="0 0 220 60" fill="none" xmlns="http://www.w3.org/2000/svg">
  <rect x="1" y="1" width="58" height="58" rx="14" fill="#0F766E" fill-opacity="0.12" stroke="#0F766E" stroke-width="2"/>
  <path d="M20 30.5C20 24.1487 25.1487 19 31.5 19H38V24.5H31.5C28.4624 24.5 26 26.9624 26 30C26 33.0376 28.4624 35.5 31.5 35.5H38V41H31.5C25.1487 41 20 35.8513 20 29.5V30.5Z" fill="#0B4336"/>
  <path d="M38 19H44.5C50.8513 19 56 24.1487 56 30.5C56 36.8513 50.8513 42 44.5 42H38V35.5H44.5C47.5376 35.5 50 33.0376 50 30C50 26.9624 47.5376 24.5 44.5 24.5H38V19Z" fill="#0EA5E9"/>
  <text x="78" y="30" fill="#0B4336" font-family="Arial, sans-serif" font-size="22" font-weight="700" dominant-baseline="middle">Gesmeco</text>
  <text x="78" y="46" fill="#334155" font-family="Arial, sans-serif" font-size="16" font-weight="600" dominant-baseline="middle">Energía</text>
</svg>
